<svg width="27" height="26" viewBox="0 0 27 26" fill="#5471F1" xmlns="http://www.w3.org/2000/svg">
<path fill-rule="evenodd" clip-rule="evenodd" d="M18.5383 2.16666H22.0771C23.5412 2.16666 24.7289 3.36471 24.7289 4.84269V8.4111C24.7289 9.88796 23.5412 11.0871 22.0771 11.0871H18.5383C17.073 11.0871 15.8853 9.88796 15.8853 8.4111V4.84269C15.8853 3.36471 17.073 2.16666 18.5383 2.16666Z" stroke="#B4BEC3" stroke-width="1.5" stroke-linecap="round" stroke-linejoin="round"/>
<path fill-rule="evenodd" clip-rule="evenodd" d="M5.7155 2.16666H9.2532C10.7185 2.16666 11.9062 3.36471 11.9062 4.84269V8.4111C11.9062 9.88796 10.7185 11.0871 9.2532 11.0871H5.7155C4.25024 11.0871 3.0625 9.88796 3.0625 8.4111V4.84269C3.0625 3.36471 4.25024 2.16666 5.7155 2.16666Z" stroke="#B4BEC3" stroke-width="1.5" stroke-linecap="round" stroke-linejoin="round"/>
<path fill-rule="evenodd" clip-rule="evenodd" d="M5.7155 14.9128H9.2532C10.7185 14.9128 11.9062 16.1109 11.9062 17.59V21.1573C11.9062 22.6353 10.7185 23.8333 9.2532 23.8333H5.7155C4.25024 23.8333 3.0625 22.6353 3.0625 21.1573V17.59C3.0625 16.1109 4.25024 14.9128 5.7155 14.9128Z" stroke="#B4BEC3" stroke-width="1.5" stroke-linecap="round" stroke-linejoin="round"/>
<path fill-rule="evenodd" clip-rule="evenodd" d="M18.5383 14.9128H22.0771C23.5412 14.9128 24.7289 16.1109 24.7289 17.59V21.1573C24.7289 22.6353 23.5412 23.8333 22.0771 23.8333H18.5383C17.073 23.8333 15.8853 22.6353 15.8853 21.1573V17.59C15.8853 16.1109 17.073 14.9128 18.5383 14.9128Z" stroke="#B4BEC3" stroke-width="1.5" stroke-linecap="round" stroke-linejoin="round"/>
</svg>
