<svg width="27" height="26" viewBox="0 0 27 26" fill="#5471F1" xmlns="http://www.w3.org/2000/svg">
<path d="M10.628 22.5023V19.18C10.628 18.335 11.3169 17.6484 12.1704 17.6427H15.297C16.1547 17.6427 16.8499 18.331 16.8499 19.18V19.18V22.5127C16.8497 23.2301 17.4281 23.8165 18.1526 23.8333H20.237C22.3149 23.8333 23.9993 22.1657 23.9993 20.1086V20.1086V10.6576C23.9883 9.84839 23.6044 9.08845 22.9572 8.59411L15.8285 2.90907C14.5797 1.91919 12.8044 1.91919 11.5556 2.90907L4.45821 8.60443C3.80846 9.09676 3.42402 9.85796 3.41602 10.668V20.1086C3.41602 22.1657 5.10046 23.8333 7.17834 23.8333H9.26272C10.0052 23.8333 10.6072 23.2374 10.6072 22.5023V22.5023" stroke="#B4BEC3" stroke-width="1.5" stroke-linecap="round" stroke-linejoin="round"/>
</svg>
