<svg width="25" height="24" viewBox="0 0 25 24" fill="none" xmlns="http://www.w3.org/2000/svg">
<path fill-rule="evenodd" clip-rule="evenodd" d="M12.3889 2C7.08058 2 2.77734 6.20819 2.77734 11.3993C2.77734 16.5903 7.08058 20.7985 12.3889 20.7985C14.6592 20.7985 16.7457 20.0287 18.3903 18.7415L21.5144 21.7886L21.5975 21.8586C21.8876 22.0685 22.2988 22.0446 22.5612 21.7873C22.8499 21.5043 22.8493 21.0459 22.5599 20.7636L19.4725 17.7523C21.0423 16.0794 22.0004 13.8487 22.0004 11.3993C22.0004 6.20819 17.6972 2 12.3889 2ZM12.3889 3.44774C16.8796 3.44774 20.52 7.00776 20.52 11.3993C20.52 15.7908 16.8796 19.3508 12.3889 19.3508C7.8982 19.3508 4.25778 15.7908 4.25778 11.3993C4.25778 7.00776 7.8982 3.44774 12.3889 3.44774Z" fill="#B4BEC3"/>
</svg>
