<svg width="27" height="26" viewBox="0 0 27 26" fill="#5471F1" xmlns="http://www.w3.org/2000/svg">
<path fill-rule="evenodd" clip-rule="evenodd" d="M13.8778 3.72757L16.3868 8.77482C16.5125 9.0294 16.7551 9.20707 17.0368 9.24823L22.6539 10.0596C22.8814 10.09 23.0861 10.2091 23.2259 10.3911C23.4881 10.7324 23.448 11.2156 23.1338 11.5091L19.0626 15.446C18.8557 15.641 18.7636 15.927 18.8178 16.2054L19.7928 21.7607C19.8611 22.2212 19.5469 22.6523 19.0865 22.7271C18.8958 22.7563 18.7008 22.726 18.5275 22.6404L13.5246 20.0176C13.2733 19.8811 12.9721 19.8811 12.7208 20.0176L7.68114 22.6545C7.25972 22.869 6.74406 22.7097 6.51439 22.297C6.42664 22.1302 6.39631 21.9406 6.42664 21.7553L7.40164 16.2C7.45039 15.9226 7.35831 15.6377 7.15681 15.4416L3.06397 11.5059C2.73031 11.1744 2.72814 10.6349 3.06072 10.3012C3.06181 10.3001 3.06289 10.298 3.06397 10.2969C3.20156 10.1723 3.37056 10.0889 3.55364 10.0564L9.17181 9.24498C9.45239 9.20057 9.69397 9.02507 9.82181 8.77048L12.3286 3.72757C12.4294 3.52282 12.6081 3.36573 12.8248 3.29423C13.0426 3.22165 13.2809 3.23898 13.4856 3.3419C13.6536 3.42532 13.7911 3.56073 13.8778 3.72757Z" stroke="#B4BEC3" stroke-width="1.5" stroke-linecap="round" stroke-linejoin="round"/>
</svg>
